HIERARCHY
ROOT Hips
{
	OFFSET 0.000000 8.830580 0.000000
	CHANNELS 6 Xposition Yposition Zposition Zrotation Yrotation Xrotation 
	JOINT Spine
	{
		OFFSET 0.000000 0.010000 0.000000
		CHANNELS 3 Zrotation Yrotation Xrotation
		JOINT Spine1
		{
			OFFSET 0.000000 2.459130 0.000000
			CHANNELS 3 Zrotation Yrotation Xrotation
			JOINT Neck
			{
				OFFSET 0.000000 2.484630 0.000000
				CHANNELS 3 Zrotation Yrotation Xrotation
				JOINT Head_virtual
				{
					OFFSET 0.000000 0.000000 0.000000
					CHANNELS 3 Zrotation Yrotation Xrotation
					JOINT Head
					{
						OFFSET 0.000000 0.927525 0.000000
						CHANNELS 3 Zrotation Yrotation Xrotation
						End Site
						{
							OFFSET 0.000000 0.000000 0.000000
						}
					}
				}
				JOINT LeftUpArm_virtual
				{
					OFFSET 0.000000 0.000000 0.000000
					CHANNELS 3 Zrotation Yrotation Xrotation
					JOINT LeftUpArm
					{
						OFFSET 1.248820 0.000000 0.000000
						CHANNELS 3 Zrotation Yrotation Xrotation
						JOINT LeftForeArm
						{
							OFFSET 2.597580 0.000000 0.000000
							CHANNELS 3 Zrotation Yrotation Xrotation
							JOINT LeftHand
							{
								OFFSET 2.455420 0.000000 0.000000
								CHANNELS 3 Zrotation Yrotation Xrotation
								End Site
								{
									OFFSET 0.000000 0.000000 0.000000
								}
							}
						}
					}
				}
				JOINT RightUpArm_virtual
				{
					OFFSET -0.000000 -0.000000 -0.000000
					CHANNELS 3 Zrotation Yrotation Xrotation
					JOINT RightUpArm
					{
						OFFSET -1.248820 -0.000000 -0.000000
						CHANNELS 3 Zrotation Yrotation Xrotation
						JOINT RightForeArm
						{
							OFFSET -2.597580 -0.000000 -0.000000
							CHANNELS 3 Zrotation Yrotation Xrotation
							JOINT RightHand
							{
								OFFSET -2.455420 -0.000000 -0.000000
								CHANNELS 3 Zrotation Yrotation Xrotation
								End Site
								{
									OFFSET 0.000000 0.000000 0.000000
								}
							}
						}
					}
				}
			}
		}
	}
	JOINT LeftUpLeg
	{
		OFFSET 1.271939 0.000000 0.000000
		CHANNELS 3 Zrotation Yrotation Xrotation
		JOINT LeftLowLeg
		{
			OFFSET 0.000000 -4.342910 0.000000
			CHANNELS 3 Zrotation Yrotation Xrotation
			JOINT LeftFoot
			{
				OFFSET 0.000000 -4.487670 0.000000
				CHANNELS 3 Zrotation Yrotation Xrotation
				JOINT LeftToeBase
				{
					OFFSET 0.000000 0.000000 1.515070
					CHANNELS 3 Zrotation Yrotation Xrotation
					End Site
					{
						OFFSET 0.000000 0.000000 0.000000
					}
				}
			}
		}
	}
	JOINT RightUpLeg
	{
		OFFSET -1.271939 0.000000 0.000000
		CHANNELS 3 Zrotation Yrotation Xrotation
		JOINT RightLowLeg
		{
			OFFSET 0.000000 -4.342910 0.000000
			CHANNELS 3 Zrotation Yrotation Xrotation
			JOINT RightFoot
			{
				OFFSET 0.000000 -4.487670 0.000000
				CHANNELS 3 Zrotation Yrotation Xrotation
				JOINT RightToeBase
				{
					OFFSET 0.000000 0.000000 1.515070
					CHANNELS 3 Zrotation Yrotation Xrotation
					End Site
					{
						OFFSET 0.000000 0.000000 0.000000
					}
				}
			}
		}
	}
}
MOTION
Frames: 5
Frame Time: 0.041667
-14.956707 9.012981 38.740147 -176.581309 -28.277078 -162.851559 7.365183 -1.091287 -30.543333 -2.857472 0.557741 10.467102 0.000000 0.000000 0.000000 13.676285 -1.146542 -2.179829 -9.954244 -15.345106 -77.415743 -26.955601 3.526260 6.697770 -44.679401 7.243950 -164.798004 -180.000000 78.936996 -180.000000 43.280102 -1.068560 136.671997 26.551201 -5.709130 1.069770 46.804600 -13.448600 -164.606003 -180.000000 -72.495003 -180.000000 -31.785700 14.275100 155.742996 8.346049 -26.400141 -17.361778 0.000000 0.000000 4.685650 -1.361670 20.710900 -1.897674 0.000000 0.000000 -11.100140 0.080703 28.771845 -15.868180 0.000000 0.000000 3.816910 3.104249 -31.343027 3.002356 0.000000 0.000000 -18.087540 
-14.956260 9.013109 38.742627 -176.577846 -28.238439 -162.861051 7.376325 -1.063264 -30.554623 -2.896873 0.558869 10.476104 0.000000 0.000000 0.000000 13.647770 -1.112257 -2.130865 -9.937689 -15.349656 -77.434538 -26.932100 3.503240 6.743390 -44.680901 7.209490 -164.766998 180.000000 78.945999 180.000000 43.289299 -1.149280 136.457993 26.546200 -5.713200 1.069300 46.756599 -13.450800 -164.626007 -180.000000 -72.526001 180.000000 -31.931700 14.164800 155.772003 8.359800 -26.450204 -17.362906 0.000000 0.000000 4.676340 -1.228414 20.831651 -1.814126 0.000000 0.000000 -11.209380 0.071538 28.768450 -15.883425 0.000000 0.000000 3.826120 3.102553 -31.302844 3.019807 0.000000 0.000000 -18.115300 
-14.955522 9.013376 38.744966 -176.571139 -28.193131 -162.875352 7.385830 -1.042364 -30.566400 -2.925732 0.559799 10.497707 0.000000 0.000000 0.000000 13.641295 -1.101845 -2.106269 -9.962935 -15.350065 -77.446309 -26.917400 3.501270 6.744410 -44.652000 7.176480 -164.682999 180.000000 78.973999 180.000000 43.224098 -1.202130 136.802002 26.548700 -5.700470 1.072930 46.718399 -13.462400 -164.679001 -180.000000 -72.539001 180.000000 -32.040798 14.108500 155.729004 8.347645 -26.408415 -17.342998 0.000000 0.000000 4.655690 -1.245704 20.818574 -1.802734 0.000000 0.000000 -11.212490 0.063334 28.782121 -15.896848 0.000000 0.000000 3.834020 3.099654 -31.272570 3.045054 0.000000 0.000000 -18.110970 
-14.954798 9.013434 38.746574 -176.562632 -28.172995 -162.887615 7.393975 -1.036928 -30.568242 -2.950156 0.548651 10.489786 0.000000 0.000000 0.000000 13.614837 -1.065419 -2.056802 -9.973028 -15.345837 -77.456080 -26.911100 3.508600 6.743900 -44.624500 7.191530 -164.662003 180.000000 78.947998 180.000000 43.234100 -1.256490 136.761002 26.552900 -5.686930 1.088950 46.685001 -13.468500 -164.710999 180.000000 -72.536003 -180.000000 -32.109299 14.116300 155.544998 8.339058 -26.359804 -17.330962 0.000000 0.000000 4.643790 -1.390048 20.743593 -1.878729 0.000000 0.000000 -11.078460 0.057395 28.816267 -15.905420 0.000000 0.000000 3.834380 3.106530 -31.287224 3.050796 0.000000 0.000000 -18.118120 
-14.953861 9.013579 38.748962 -176.556245 -28.147346 -162.908525 7.404412 -1.029887 -30.586571 -2.973426 0.542998 10.535378 0.000000 0.000000 0.000000 13.588737 -1.060984 -2.073015 -9.987600 -15.351004 -77.445856 -26.925400 3.504970 6.731420 -44.595699 7.155270 -164.630997 180.000000 78.982002 180.000000 43.270401 -1.177680 136.701004 26.546600 -5.711550 1.096910 46.640598 -13.415500 -164.690994 -180.000000 -72.554001 180.000000 -32.028400 14.067100 155.557007 8.327474 -26.323642 -17.317378 0.000000 0.000000 4.638370 -1.394887 20.726497 -1.869961 0.000000 0.000000 -11.076810 0.055676 28.833276 -15.907397 0.000000 0.000000 3.836800 3.098713 -31.284106 3.072701 0.000000 0.000000 -18.114550 
